<svg xmlns="http://www.w3.org/2000/svg" viewBox="0 0 64 64">
  <defs>
    <linearGradient id="bg" x1="0" y1="0" x2="1" y2="1">
      <stop offset="0%" stop-color="#2B1B4E" />
      <stop offset="55%" stop-color="#C6247B" />
      <stop offset="100%" stop-color="#FF7A3D" />
    </linearGradient>
    <radialGradient id="sun" cx="45%" cy="42%" r="60%">
      <stop offset="0%" stop-color="#FFF3C4" />
      <stop offset="55%" stop-color="#FFD23F" />
      <stop offset="100%" stop-color="#FFB627" />
    </radialGradient>
  </defs>

  <rect x="1" y="1" width="62" height="62" rx="16" fill="url(#bg)" />

  <g fill="#FFD23F">
    <rect x="28.5" y="5" width="7" height="12" rx="3.5" />
    <rect x="28.5" y="5" width="7" height="12" rx="3.5" transform="rotate(45 32 32)" />
    <rect x="28.5" y="5" width="7" height="12" rx="3.5" transform="rotate(90 32 32)" />
    <rect x="28.5" y="5" width="7" height="12" rx="3.5" transform="rotate(135 32 32)" />
    <rect x="28.5" y="5" width="7" height="12" rx="3.5" transform="rotate(180 32 32)" />
    <rect x="28.5" y="5" width="7" height="12" rx="3.5" transform="rotate(225 32 32)" />
    <rect x="28.5" y="5" width="7" height="12" rx="3.5" transform="rotate(270 32 32)" />
    <rect x="28.5" y="5" width="7" height="12" rx="3.5" transform="rotate(315 32 32)" />
  </g>

  <circle cx="32" cy="32" r="15" fill="url(#sun)" />
</svg>
